<svg width="156" height="156" xmlns="http://www.w3.org/2000/svg" xmlns:xlink="http://www.w3.org/1999/xlink" xml:space="preserve" overflow="hidden"><g><path d="M32.0125 86.125C31.2 86.6125 30.225 87.2625 29.4125 87.75 25.5125 90.675 22.9125 95.0625 22.2625 99.9375L19.3375 135.688 21.9375 136.5C22.75 136.825 44.2 143 78.1625 143 112.125 143 133.412 136.825 134.387 136.5L136.988 135.688 134.225 100.263 134.225 99.9375C133.412 95.225 130.812 90.8375 127.075 87.9125 122.525 84.5 117.65 81.575 112.287 79.4625 114.562 74.5875 112.613 68.7375 107.9 66.3 119.762 50.05 116.188 27.1375 99.9375 15.275 83.6875 3.4125 60.775 6.9875 48.9125 23.2375 39.4875 36.075 39.4875 53.4625 48.9125 66.3 44.0375 68.9 42.0875 74.75 44.525 79.7875 40.4625 81.575 35.75 83.85 32.0125 86.125ZM51.35 78.325C49.5625 77.35 49.075 75.075 50.05 73.2875 50.7 72.15 51.8375 71.5 53.1375 71.5 67.1125 84.5 88.725 84.5 102.7 71.5 103.025 71.5 103.35 71.5 103.513 71.6625 105.463 72.15 106.6 74.1 106.113 76.05 105.95 77.025 105.3 77.8375 104.488 78.325 98.15 82.225 88.4 84.5 78 84.5 67.6 84.5 58.0125 82.225 51.35 78.325L51.35 78.325ZM84.825 35.75 89.8625 37.375C91.975 41.7625 97.5 45.5 97.6625 51.8375L97.6625 53.4625C97.6625 55.7375 97.3375 57.85 96.525 59.9625L89.375 59.9625C88.725 58.9875 87.75 58.3375 86.6125 58.3375L83.3625 58.3375C81.575 58.3375 80.1125 59.8 80.1125 61.5875 80.1125 63.375 81.575 64.8375 83.3625 64.8375L86.6125 64.8375C87.75 64.8375 88.8875 64.1875 89.375 63.2125L95.0625 63.2125C89.7 72.475 77.8375 75.725 68.4125 70.3625 63.05 67.275 59.475 61.75 58.825 55.575 56.55 42.575 75.2375 47.2875 84.825 35.75ZM78 14.625C89.8625 14.625 100.588 21.6125 105.463 32.3375 98.9625 27.4625 89.2125 24.375 78 24.375 66.7875 24.375 57.0375 27.4625 50.5375 32.3375 55.4125 21.6125 66.1375 14.625 78 14.625ZM113.425 134.062 112.125 123.175C111.963 121.387 110.338 120.088 108.55 120.412 106.762 120.575 105.463 122.2 105.787 123.988L107.088 134.875C97.3375 136.012 87.75 136.5 78 136.5 68.25 136.5 58.6625 136.012 49.075 134.875L50.375 123.988C50.5375 122.2 49.4 120.575 47.6125 120.412 45.825 120.25 44.2 121.387 44.0375 123.175L44.0375 123.175 42.7375 134.062C35.1 132.925 29.4125 131.787 26.4875 130.975L28.925 100.912C29.25 99.45 29.7375 97.825 30.55 96.525L37.8625 102.7 44.2 95.225 38.1875 90.025C41.925 87.75 45.6625 85.9625 49.725 84.3375 57.2 88.4 67.6 90.8375 78.4875 90.8375 89.5375 90.8375 99.9375 88.4 107.412 84.175 111.475 85.6375 115.213 87.5875 118.95 89.8625L112.775 95.225 119.113 102.7 126.425 96.525C127.238 97.825 127.725 99.2875 128.05 100.912L130.488 130.812C126.75 131.787 121.225 132.925 113.425 134.062Z"/><path d="M11.7 58.5C10.725 62.075 8.2875 65 4.875 66.625 8.125 68.25 10.725 71.175 11.7 74.75 12.675 71.175 15.1125 68.25 18.525 66.625 15.1125 65 12.675 62.075 11.7 58.5Z"/><path d="M91 99.125 65 99.125C61.425 99.125 58.5 102.05 58.5 105.625L58.5 118.625C58.5 122.2 61.425 125.125 65 125.125L91 125.125C94.575 125.125 97.5 122.2 97.5 118.625L97.5 105.625C97.5 102.05 94.575 99.125 91 99.125ZM65 118.625 65 105.625 91 105.625 91 118.625 65 118.625Z"/><path d="M28.925 14.625C27.95 18.2 25.5125 21.125 22.1 22.75 25.35 24.375 27.95 27.3 28.925 30.875 29.9 27.3 32.3375 24.375 35.75 22.75 32.5 21.125 29.9 18.2 28.925 14.625Z"/><path d="M136.175 50.5375C135.2 54.1125 132.762 57.0375 129.35 58.6625 132.6 60.2875 135.2 63.2125 136.175 66.7875 137.15 63.2125 139.588 60.2875 143 58.6625 139.75 57.0375 137.15 54.1125 136.175 50.5375Z"/></g></svg>